<?xml version="1.0" encoding="UTF-8" standalone="no"?><!-- Generator: Gravit.io --><svg xmlns="http://www.w3.org/2000/svg" xmlns:xlink="http://www.w3.org/1999/xlink" style="isolation:isolate" viewBox="0 0 222.041 222" width="222.041pt" height="222pt"><defs><clipPath id="_clipPath_f0CPhNIDUc31Zq3xzxdg6lvtaJVE9c5y"><rect width="222.041" height="222"/></clipPath></defs><g clip-path="url(#_clipPath_f0CPhNIDUc31Zq3xzxdg6lvtaJVE9c5y)"><rect width="222.041" height="222" style="fill:rgb(25,25,25)" fill-opacity="0"/><circle vector-effect="non-scaling-stroke" cx="110.37086841361109" cy="112.65024376232259" r="5.507492047422147" fill="rgb(77,77,77)"/><g><path d=" M 184.156 44.042 C 191.816 52.375 197.995 61.972 202.421 72.415 C 206.829 82.855 209.406 93.963 210.055 105.249 L 222.041 105.249 C 220.671 78.409 209.759 54.071 192.615 35.582 L 184.156 44.042 L 184.156 44.042 Z  M 194.405 184.446 C 210.516 166.212 220.719 142.646 222.041 116.751 L 210.055 116.751 C 209.406 128.037 206.829 139.145 202.421 149.585 C 198.342 159.209 192.775 168.113 185.938 175.979 L 194.405 184.446 L 194.405 184.446 Z " fill-rule="evenodd" fill="rgb(200,190,7)"/><path d=" M 28.646 185.445 C 11.889 166.993 1.277 142.874 0 116.324 L 11.984 116.324 C 12.602 127.723 15.185 138.947 19.637 149.489 C 23.908 159.568 29.812 168.858 37.108 176.982 L 28.646 185.445 L 28.646 185.445 Z  M 37.991 43.849 C 30.29 52.205 24.08 61.836 19.637 72.32 C 15.272 82.657 12.703 93.65 12.023 104.821 L 0.034 104.821 C 1.48 78.066 12.407 53.815 29.532 35.39 L 37.991 43.849 L 37.991 43.849 Z " fill-rule="evenodd" fill="rgb(77,7,240)"/><path d=" M 177.056 37.034 C 168.946 29.765 159.678 23.881 149.626 19.62 C 139.187 15.212 128.078 12.635 116.793 11.986 L 116.793 0 C 143.181 1.348 167.152 11.918 185.522 28.568 L 177.056 37.034 L 177.056 37.034 Z  M 46.063 36.103 C 53.928 29.266 62.833 23.699 72.456 19.62 C 82.896 15.212 94.005 12.635 105.29 11.986 L 105.29 0 C 79.395 1.323 55.829 11.526 37.596 27.637 L 46.063 36.103 L 46.063 36.103 Z " fill-rule="evenodd" fill="rgb(227,24,24)"/><path d=" M 35.623 192.574 C 54.112 209.718 78.45 220.629 105.29 222 L 105.29 210.014 C 94.005 209.365 82.896 206.788 72.456 202.38 C 62.013 197.954 52.417 191.775 44.083 184.114 L 35.623 192.574 L 35.623 192.574 Z  M 186.589 192.447 C 168.087 209.665 143.697 220.626 116.793 222 L 116.793 210.014 C 128.078 209.365 139.187 206.788 149.626 202.38 C 160.125 197.93 169.769 191.708 178.134 183.992 L 186.589 192.447 L 186.589 192.447 Z " fill-rule="evenodd" fill="rgb(5,206,112)"/></g><g><path d=" M 148.402 30.502 C 157.6 34.751 166.009 40.554 173.26 47.659 C 180.496 54.768 186.448 63.059 190.869 72.161 L 200.773 68.035 C 190.402 46.33 173.01 29.977 152.48 20.601 L 148.402 30.502 L 148.402 30.502 Z  M 205.197 142.985 C 212.233 122.374 212.552 99.39 204.732 77.539 L 194.828 81.665 C 198.176 91.213 199.871 101.278 199.822 111.422 C 199.764 120.777 198.229 130.051 195.287 138.903 L 205.197 142.985 L 205.197 142.985 Z " fill-rule="evenodd" fill="rgb(200,190,7)"/><path d=" M 68.581 200.864 C 48.385 191.385 31.315 175.109 21.121 153.612 L 31.024 149.487 C 35.457 158.693 41.455 167.078 48.762 174.256 C 55.76 181.113 63.836 186.757 72.66 190.959 L 68.581 200.864 L 68.581 200.864 Z  M 27.566 80.652 C 24.079 90.208 22.263 100.302 22.201 110.494 C 22.152 120.538 23.813 130.505 27.096 139.97 L 17.19 144.096 C 9.176 121.492 9.858 97.692 17.666 76.575 L 27.566 80.652 L 27.566 80.652 Z " fill-rule="evenodd" fill="rgb(77,7,240)"/><path d=" M 140.124 27.156 C 130.921 23.941 121.238 22.269 111.466 22.209 C 101.323 22.16 91.258 23.854 81.71 27.203 L 77.584 17.299 C 99.852 9.329 123.296 9.813 144.205 17.247 L 140.124 27.156 L 140.124 27.156 Z  M 31.569 71.474 C 35.715 63.118 41.156 55.453 47.704 48.771 C 54.813 41.535 63.104 35.582 72.206 31.162 L 68.08 21.258 C 47.14 31.264 31.18 47.805 21.66 67.393 L 31.569 71.474 L 31.569 71.474 Z " fill-rule="evenodd" fill="rgb(227,24,24)"/><path d=" M 76.8 204.352 C 97.978 212.154 121.843 212.792 144.492 204.687 L 140.366 194.783 C 130.818 198.131 120.752 199.826 110.609 199.777 C 100.457 199.714 90.401 197.912 80.879 194.451 L 76.8 204.352 L 76.8 204.352 Z  M 201.493 152.286 C 192.132 172.881 175.752 190.332 153.995 200.728 L 149.87 190.824 C 158.971 186.403 167.263 180.451 174.371 173.215 C 181.515 165.925 187.341 157.465 191.597 148.21 L 201.493 152.286 L 201.493 152.286 Z " fill-rule="evenodd" fill="rgb(5,206,112)"/></g><path d="M 110.265 30 L 110.265 30 C 111.25 30 112.05 30.834 112.05 31.862 L 112.05 112.078 C 112.05 113.106 111.25 113.94 110.265 113.94 L 110.265 113.94 C 109.28 113.94 108.48 113.106 108.48 112.078 L 108.48 31.862 C 108.48 30.834 109.28 30 110.265 30 Z" style="stroke:none;fill:#4D4D4D;stroke-miterlimit:10;"/><path d="M 158.419 150.775 L 158.419 150.775 C 157.333 152.136 155.329 152.345 153.948 151.242 L 110.326 116.429 C 108.944 115.326 108.704 113.326 109.791 111.965 L 109.791 111.965 C 110.877 110.604 112.881 110.395 114.262 111.498 L 157.884 146.311 C 159.266 147.414 159.506 149.414 158.419 150.775 Z" style="stroke:none;fill:#4D4D4D;stroke-miterlimit:10;"/><path d=" M 90 80.134 L 90 80.134 L 90 80.134 Q 88.965 90.539 88.019 98.962 L 88.019 98.962 L 88.019 98.962 Q 87.072 107.386 86.304 114.463 L 86.304 114.463 L 86.304 114.463 Q 85.535 121.541 84.859 127.524 L 84.859 127.524 L 84.859 127.524 Q 84.182 133.507 83.668 138.942 L 83.668 138.942 L 83.668 138.942 Q 84.041 145.028 79.646 148.491 L 79.646 148.491 L 79.646 148.491 Q 77.075 150.443 73.145 151.284 L 73.145 151.284 L 73.145 151.284 Q 69.214 152.125 67.067 151.697 L 67.067 151.697 L 67.067 151.697 Q 64.919 151.27 63.993 149.786 L 63.993 149.786 L 63.993 149.786 Q 63.067 148.303 63.158 145.901 L 63.158 145.901 L 63.158 145.901 Q 63.25 143.5 63.825 139.219 L 63.825 139.219 L 63.825 139.219 Q 64.4 134.939 65.13 127.683 L 65.13 127.683 L 65.13 127.683 Q 65.861 120.427 66.776 112.944 L 66.776 112.944 L 66.776 112.944 Q 69.019 94.248 71.063 86.803 L 71.063 86.803 L 71.063 86.803 Q 71.866 84.016 73.024 82.881 L 73.024 82.881 L 73.024 82.881 Q 74.181 81.745 75.346 81.076 L 75.346 81.076 L 75.346 81.076 Q 76.51 80.406 77.467 79.641 L 77.467 79.641 L 77.467 79.641 Q 78.424 78.876 78.812 76.55 L 78.812 76.55 L 78.812 76.55 Q 79.2 74.225 81.305 72.934 L 81.305 72.934 L 81.305 72.934 Q 83.41 71.643 85.564 71.882 L 85.564 71.882 L 85.564 71.882 Q 87.718 72.122 89.215 74.09 L 89.215 74.09 L 89.215 74.09 Q 90.713 76.058 90 80.134 Z  M 160.961 140.575" fill="rgb(251,251,251)"/><path d=" M 152.613 118.431 L 152.613 118.431 L 152.613 118.431 Q 151.285 126.166 149.83 133.3 L 149.83 133.3 L 149.83 133.3 Q 148.374 140.433 147.282 144.204 L 147.282 144.204 L 147.282 144.204 Q 146.189 147.974 145.176 149.482 L 145.176 149.482 L 145.176 149.482 Q 144.162 150.989 142.989 151.661 L 142.989 151.661 L 142.989 151.661 Q 141.816 152.333 140.565 152.444 L 140.565 152.444 L 140.565 152.444 Q 139.315 152.554 138.021 152.671 L 138.021 152.671 L 138.021 152.671 Q 130.681 152.637 132.011 142.077 L 132.011 142.077 L 132.011 142.077 Q 132.687 133.732 133.089 128.447 L 133.089 128.447 L 133.089 128.447 Q 133.491 123.163 133.756 119.72 L 133.756 119.72 L 133.756 119.72 Q 134.021 116.278 134.228 113.994 L 134.228 113.994 L 134.228 113.994 Q 134.435 111.709 134.734 109.458 L 134.734 109.458 L 134.734 109.458 Q 135.033 107.207 135.553 104.344 L 135.553 104.344 L 135.553 104.344 Q 136.073 101.482 136.901 96.75 L 136.901 96.75 L 136.901 96.75 Q 126.874 97.851 124.144 97.056 L 124.144 97.056 L 124.144 97.056 Q 120.141 95.897 120.006 89.887 L 120.006 89.887 L 120.006 89.887 Q 119.971 87.116 121.952 84.396 L 121.952 84.396 L 121.952 84.396 Q 122.978 82.982 124.405 81.311 L 124.405 81.311 L 124.405 81.311 Q 157.71 69.611 165.078 68.588 L 165.078 68.588 L 165.078 68.588 Q 166.989 67.89 169.204 68.434 L 169.204 68.434 L 169.204 68.434 Q 171.419 68.979 172.908 70.265 L 172.908 70.265 L 172.908 70.265 Q 174.396 71.552 174.685 73.323 L 174.685 73.323 L 174.685 73.323 Q 174.975 75.095 173.035 76.85 L 173.035 76.85 L 173.035 76.85 Q 172.115 77.768 171.928 79.57 L 171.928 79.57 L 171.928 79.57 Q 171.741 81.372 171.495 83.376 L 171.495 83.376 L 171.495 83.376 Q 171.249 85.379 170.488 87.132 L 170.488 87.132 L 170.488 87.132 Q 169.727 88.885 167.632 89.518 L 167.632 89.518 L 167.632 89.518 Q 166.613 90.356 164.646 90.967 L 164.646 90.967 L 164.646 90.967 Q 158.399 91.64 157.778 91.886 L 157.778 91.886 L 157.778 91.886 Q 157.132 90.256 157.098 90.644 L 157.098 90.644 L 157.098 90.644 Q 156.25 95.858 155.096 103.277 L 155.096 103.277 L 155.096 103.277 Q 153.942 110.696 152.613 118.431 Z  M 137.624 95.673 L 137.612 95.579 L 137.612 95.579 Q 137.441 95.608 137.447 95.654 L 137.447 95.654 L 137.447 95.654 Q 137.454 95.701 137.624 95.673 L 137.624 95.673 Z " fill="rgb(251,251,251)"/></g></svg>